<svg width="13" height="14" viewBox="0 0 13 14" fill="none" xmlns="http://www.w3.org/2000/svg">
<path d="M11.0755 11.5782H9.15038V8.56163C9.15038 7.84229 9.13575 6.91658 8.14721 6.91658C7.1435 6.91658 6.99021 7.69929 6.99021 8.50854V11.5782H5.06512V5.375H6.91438V6.22054H6.93929C7.19767 5.73304 7.826 5.21846 8.76471 5.21846C10.7153 5.21846 11.076 6.50221 11.076 8.17325L11.0755 11.5782ZM2.89088 4.52621C2.27121 4.52621 1.77342 4.02463 1.77342 3.40767C1.77342 2.79125 2.27175 2.29021 2.89088 2.29021C3.50838 2.29021 4.00888 2.79125 4.00888 3.40767C4.00888 4.02463 3.50783 4.52621 2.89088 4.52621ZM3.85613 11.5782H1.92563V5.375H3.85613V11.5782ZM12.0385 0.5H0.959292C0.429 0.5 0 0.91925 0 1.43654V12.5635C0 13.0813 0.429 13.5 0.959292 13.5H12.0369C12.5667 13.5 13 13.0813 13 12.5635V1.43654C13 0.91925 12.5667 0.5 12.0369 0.5H12.0385Z" fill="black"/>
</svg>
