<svg width="174" height="144" viewBox="0 0 174 144" fill="none" xmlns="http://www.w3.org/2000/svg">
<path fill-rule="evenodd" clip-rule="evenodd" d="M68.9365 24.5108C64.3957 25.0823 59.2989 28.028 56.8895 31.4573C53.7851 35.9418 52.9511 42.6245 54.8508 48.2961C56.7505 54.0995 62.3106 60.4306 69.6315 65.0909C71.3922 66.19 73.0139 67.1133 73.1993 67.1133C73.3846 67.1133 72.1336 65.7943 70.4655 64.1237C64.9517 58.8478 61.523 53.7478 60.1793 48.8676C59.3916 45.878 59.2526 40.822 59.9476 38.4478C61.4303 33.4797 66.9904 29.5668 72.5969 29.6108C74.1723 29.6108 76.2573 29.9185 77.184 30.3142C79.7788 31.3694 82.9295 34.5789 83.9025 37.1728C84.3659 38.4039 84.8292 39.4151 84.9682 39.4151C85.1072 39.4151 85.5706 38.4918 85.9876 37.3047C87.0996 34.447 89.231 32.1168 92.1037 30.7539C98.1272 27.8522 105.865 30.4461 109.155 36.5134C110.545 39.0194 110.869 45.3064 109.757 48.9116C108.274 53.9237 104.475 59.5512 99.1002 64.7392C96.5982 67.1573 96.4128 67.4211 97.8492 66.5857C106.467 61.6176 113.001 54.715 115.086 48.2961C116.846 42.8883 116.244 36.6453 113.557 32.2487C109.294 25.3901 98.7296 22.3125 91.316 25.7418C89.231 26.7091 86.4046 28.9953 85.5242 30.4461C84.9682 31.2815 84.9682 31.2815 84.4122 30.4022C81.8638 26.1815 75.3306 23.7194 68.9365 24.5108Z" fill="#F07B17"/>
<path fill-rule="evenodd" clip-rule="evenodd" d="M71.3922 32.6444C71.0215 33.0401 72.2725 35.2823 74.0796 37.4366C76.0719 39.8108 76.906 41.1737 77.2303 42.5806C77.9253 45.1306 76.489 44.0754 72.6895 39.1953C70.5581 36.4254 68.5658 34.1392 68.3341 34.1392C67.083 34.1392 67.6391 35.4142 70.8361 40.0746C72.7359 42.8883 74.3112 45.4383 74.3112 45.7901C74.3112 48.1202 71.2995 45.7021 68.3341 40.9978C66.0174 37.2168 64.9517 36.2496 64.0713 37.0849C63.6543 37.4806 64.0713 38.5358 65.7394 41.4815C69.4461 48.0323 70.3265 48.8676 74.5429 49.747C76.767 50.1866 76.9986 50.4064 79.3617 53.7038C80.7054 55.6383 81.9101 57.2211 82.0491 57.2211C82.1418 57.2211 82.6051 56.6935 83.0221 56.034C83.7635 54.8469 83.7171 54.803 81.5394 52.1651C80.3347 50.6702 79.3617 49.1314 79.3617 48.7357C79.3617 48.2961 79.5007 46.8452 79.686 45.4383C79.964 43.1082 79.8714 42.6246 78.296 39.6349C77.3693 37.8763 75.7013 35.5022 74.5429 34.403C72.5042 32.4246 71.9945 32.1168 71.3922 32.6444Z" fill="#F07B17"/>
<path fill-rule="evenodd" clip-rule="evenodd" d="M99.888 32.9521C97.4786 33.6556 93.9572 36.953 92.5671 39.7228C91.4551 41.965 91.3624 42.5806 91.6404 45.2185L91.9184 48.2521L88.7677 51.4176C83.6709 56.5616 76.2574 66.5857 73.8016 71.7296C72.4116 74.6314 72.875 77.709 74.96 79.0719C75.7477 79.5995 79.0838 79.4676 79.9178 78.8521C81.5858 77.621 82.2345 74.9831 81.2615 73.2245C80.6128 72.1253 79.9641 72.1693 78.5278 73.3564C76.1184 75.4667 85.0609 60.7383 89.8797 54.759C93.3085 50.4504 94.5132 49.5271 96.6909 49.5271C99.1466 49.5271 101.556 48.4719 103.919 46.3176C111.194 39.6788 108.367 30.3582 99.888 32.9521Z" fill="#F07B17"/>
<path fill-rule="evenodd" clip-rule="evenodd" d="M85.8948 61.8374L84.8754 63.2003L87.0068 69.0038C88.6285 73.3563 88.9065 74.4994 88.1652 73.5762C87.6555 72.9167 86.8215 72.3891 86.3581 72.3891C85.2925 72.3891 84.3194 74.5874 84.7364 76.2581C85.6631 80.3029 91.5939 80.6986 93.3083 76.7856C93.8643 75.5546 93.818 75.027 92.8913 72.3891C91.9183 69.5313 87.5165 60.5184 87.0995 60.5184C86.9605 60.5184 86.4508 61.1339 85.8948 61.8374Z" fill="#F07B17"/>
<path fill-rule="evenodd" clip-rule="evenodd" d="M23.8066 90.1072C21.3973 90.8546 18.0612 94.24 17.1345 96.8339C16.5785 98.5046 16.0688 99.1641 15.0958 99.5158L13.8447 99.9994L15.1421 100.043L16.3931 100.087V109.32V118.509L15.1421 119.168C13.9374 119.784 14.2617 119.828 19.8682 119.872H25.8917L24.409 118.993L22.88 118.113V109.1V100.087H25.4284C26.8184 100.087 27.9768 99.8675 27.9768 99.6477C27.9768 99.3839 26.8184 99.2081 25.4284 99.2081H22.88V97.4934C22.88 94.5917 23.436 91.646 24.0847 91.4262C24.409 91.2943 25.521 92.0417 26.494 93.0089C27.6987 94.196 28.7181 94.8115 29.5058 94.8115C31.9615 94.8115 33.0272 92.1736 31.2202 90.6348C30.0618 89.6676 26.1234 89.3598 23.8066 90.1072Z" fill="#F07B17"/>
<path fill-rule="evenodd" clip-rule="evenodd" d="M94.6985 91.0744C90.9917 91.9977 90.8527 92.0856 92.0574 92.5253C93.2621 93.0089 93.3084 93.1408 93.3084 96.3942C93.3084 99.6917 93.2621 99.7356 92.2891 99.4279C86.6363 97.8011 81.6321 99.4718 79.3154 103.78C78.1107 106.023 77.6474 111.518 78.4814 113.98C80.2884 119.3 86.0339 121.718 91.3624 119.432C93.0768 118.685 93.4011 118.685 93.5864 119.212C93.8181 119.74 94.7448 119.872 97.5249 119.872C99.5173 119.872 101.185 119.784 101.185 119.652C101.185 119.52 100.768 119.036 100.259 118.553C99.3319 117.674 99.2856 117.19 99.3783 103.912C99.3783 96.3943 99.2393 90.1951 99.0539 90.1512C98.8222 90.1072 96.8762 90.5029 94.6985 91.0744ZM92.1501 100.615L93.3084 101.099V109.32V117.542L92.1501 118.025C87.285 120.136 83.9489 115.563 84.6902 107.869C85.2926 101.538 88.0726 98.8563 92.1501 100.615Z" fill="#F07B17"/>
<path fill-rule="evenodd" clip-rule="evenodd" d="M106.375 90.8547C104.151 92.8331 105.726 96.5702 108.691 96.5702C110.359 96.5702 112.305 94.8115 112.305 93.2727C112.305 91.734 110.359 89.9753 108.691 89.9753C107.996 89.9753 106.931 90.371 106.375 90.8547Z" fill="#F07B17"/>
<path fill-rule="evenodd" clip-rule="evenodd" d="M36.1315 99.384C33.4905 100.307 32.1004 101.406 30.525 103.824C29.274 105.759 29.135 106.287 29.135 109.496C29.1813 112.266 29.413 113.453 30.2007 114.904C34.1855 122.114 45.8618 122.114 49.8465 114.904C50.6342 113.453 50.8659 112.31 50.8659 109.54C50.8659 105.847 50.2172 104.044 48.1785 101.934C45.6764 99.296 39.8383 98.065 36.1315 99.384ZM42.572 100.703C43.9621 102.066 44.3327 104.396 44.1474 111.167C44.0084 115.431 43.7767 116.882 43.128 117.805C42.2477 119.124 40.626 119.652 38.8653 119.256C36.6875 118.729 36.0852 117.146 35.8998 111.167C35.8535 108.177 35.8998 104.836 36.0852 103.737C36.4559 101.274 38.0312 99.6478 40.0236 99.6478C40.904 99.6478 41.877 100.043 42.572 100.703Z" fill="#F07B17"/>
<path fill-rule="evenodd" clip-rule="evenodd" d="M60.6889 99.384C58.0478 100.307 56.6578 101.406 55.0824 103.824C53.8314 105.759 53.6924 106.287 53.6924 109.496C53.7387 112.266 53.9704 113.453 54.7581 114.904C58.7428 122.114 70.4191 122.114 74.4039 114.904C75.1916 113.453 75.4233 112.31 75.4233 109.54C75.4233 105.847 74.7746 104.044 72.7359 101.934C70.2338 99.296 64.3957 98.065 60.6889 99.384ZM67.1294 100.703C68.5194 102.066 68.8901 104.396 68.7048 111.167C68.5658 115.431 68.3341 116.882 67.6854 117.805C66.8051 119.124 65.1833 119.652 63.4226 119.256C61.2449 118.729 60.6426 117.146 60.4572 111.167C60.4109 108.177 60.4572 104.836 60.6426 103.737C61.0132 101.274 62.5886 99.6478 64.581 99.6478C65.4614 99.6478 66.4344 100.043 67.1294 100.703Z" fill="#F07B17"/>
<path fill-rule="evenodd" clip-rule="evenodd" d="M123.287 99.384C120.553 100.351 118.514 102.11 117.124 104.704C116.012 106.858 115.92 107.518 116.105 110.375C116.522 116.135 119.812 119.608 125.372 120.18C128.986 120.531 131.627 119.696 134.037 117.41C136.075 115.475 136.4 114.068 134.407 115.783C132.785 117.19 131.534 117.674 129.357 117.674C125.511 117.674 123.333 115.431 122.638 110.859L122.36 108.88H129.218H136.029L135.844 106.287C135.705 104.308 135.334 103.297 134.361 102.066C131.998 99.1202 127.411 98.021 123.287 99.384ZM128.523 100.087C129.635 100.659 130.376 102.813 130.376 105.627V108.001H126.438H122.499V106.77C122.546 104.616 123.472 101.626 124.445 100.615C125.511 99.6038 127.086 99.384 128.523 100.087Z" fill="#F07B17"/>
<path fill-rule="evenodd" clip-rule="evenodd" d="M143.674 99.4279C139.921 100.659 138.068 103.781 139.133 107.078C139.828 109.364 141.682 110.771 145.527 111.958C149.373 113.189 150.763 114.244 150.763 116.135C150.763 118.025 149.42 119.08 146.686 119.344C144.786 119.52 144.276 119.344 142.979 118.333C142.145 117.674 141.033 116.355 140.523 115.431C140.014 114.464 139.504 113.717 139.411 113.717C139.272 113.717 139.18 114.904 139.18 116.355V118.949L141.821 119.696C146.732 121.059 152.756 119.784 154.702 116.97C155.906 115.168 156.092 112.793 155.119 110.859C154.192 108.968 152.431 107.825 149.049 106.858C145.527 105.891 143.628 104.528 143.442 102.857C143.257 101.143 145.064 99.6478 147.381 99.6478C149.605 99.6478 150.485 100.219 151.968 102.593L153.265 104.704L153.682 102.549C154.192 100.175 154.007 99.9555 151.227 99.2081C149.003 98.5926 145.759 98.6805 143.674 99.4279Z" fill="#F07B17"/>
<path fill-rule="evenodd" clip-rule="evenodd" d="M107.255 100.439L103.363 101.626L104.568 102.417L105.819 103.165V110.551C105.819 114.596 105.633 118.113 105.448 118.377C105.263 118.641 104.707 119.08 104.197 119.344C103.456 119.74 104.382 119.828 108.553 119.872H113.881L112.862 118.992C111.889 118.113 111.842 117.805 111.842 108.661C111.842 103.473 111.703 99.208 111.518 99.208C111.286 99.252 109.387 99.7796 107.255 100.439Z" fill="#F07B17"/>
</svg>
