<svg xmlns="http://www.w3.org/2000/svg" width="24" height="24" viewBox="0 0 24 24"><g fill="none" stroke="currentColor" stroke-linecap="round" stroke-linejoin="round" stroke-width="1.5" color="currentColor"><path d="M16.5 7c2.111 1.098 3.68 2.945 4.258 5.138c.742 0 1.242 1.027 1.242 1.873c0 2.331-3.434 2.73-4 .506c-.503 1.977-3.497 1.977-4 0c-.503 1.977-3.497 1.977-4 0c-.503 1.977-3.497 1.977-4 0c-.566 2.224-4 1.825-4-.506c0-.846.5-1.873 1.242-1.873C3.82 9.945 5.39 8.098 7.5 7"/><path d="M12 4a2 2 0 1 1 0 4a2 2 0 0 1 0-4m0 0c0-.5.4-1.6 2-2m.5 8.5l.5 1m-5.5-1l-.5 1M3.5 16l.632 1.897c.66 1.98.99 2.97 1.776 3.537S7.738 22 9.825 22h4.35c2.088 0 3.131 0 3.917-.566c.786-.567 1.116-1.557 1.776-3.537L20.5 16"/></g></svg>