<svg xmlns="http://www.w3.org/2000/svg" width="24" height="24" viewBox="0 0 24 24"><g fill="none" stroke="currentColor" stroke-linecap="round" stroke-linejoin="round" stroke-width="0.8" color="currentColor"><path d="M7 18v-2m5 2v-3m5 3v-5M2.5 12c0-4.478 0-6.718 1.391-8.109S7.521 2.5 12 2.5c4.478 0 6.718 0 8.109 1.391S21.5 7.521 21.5 12c0 4.478 0 6.718-1.391 8.109S16.479 21.5 12 21.5c-4.478 0-6.718 0-8.109-1.391S2.5 16.479 2.5 12"/><path d="M5.992 11.486c2.155.072 7.042-.253 9.822-4.665m-1.822-.533l1.876-.302c.228-.029.564.152.647.367l.495 1.638"/></g></svg>