<svg xmlns="http://www.w3.org/2000/svg" width="24" height="24" viewBox="0 0 24 24"><g fill="none" stroke="currentColor" stroke-linecap="round" stroke-linejoin="round" stroke-width="1.5" color="currentColor"><path d="M8.73 21.499c1.293-2.223 4.252-2.485 5.937-.787c.377.38.566.57.733.593s1.215-.579 1.587-.792c.38-.218 1.432-.821 1.498-.979s-.003-.427-.142-.965c-.503-1.957.718-4.017 2.668-4.548c.522-.142.783-.213.886-.35c.103-.135.103-1.33.103-1.768s0-1.632-.103-1.768s-.364-.207-.886-.35c-1.95-.53-3.172-2.59-2.67-4.547c.14-.539.208-.808.142-.966s-1.118-.76-1.497-.978c-.372-.214-1.42-.815-1.588-.792c-.167.023-.355.212-.732.592a3.775 3.775 0 0 1-5.333 0c-.377-.38-.566-.57-.733-.592s-1.215.578-1.587.792c-.38.217-1.432.82-1.498.979c-.066.157.003.427.142.965c.503 1.957-.718 4.017-2.668 4.548c-.522.142-.783.213-.886.349S2 11.466 2 11.903s0 1.633.103 1.769s.364.207.886.349l.018.005"/><path d="M2.489 18.183c1.08-1.08 4.752-4.714 5.112-5.134c.38-.444.072-1.044.256-2.903c.088-.9.282-1.574.836-2.075c.66-.624 1.2-.624 3.06-.666c1.62.042 1.812-.138 1.98.282c.12.3-.24.48-.672.96c-.96.96-1.524 1.439-1.578 1.739c-.39 1.32 1.146 2.099 1.986 1.26c.318-.318 1.788-1.8 1.932-1.92c.108-.096.366-.091.492.06c.108.106.12.12.108.6c-.011.444-.006 1.082-.005 1.74c.002.851-.043 1.798-.403 2.278c-.72 1.08-1.92 1.14-3 1.188c-1.02.06-1.86-.048-2.124.144c-.216.108-1.356 1.307-2.736 2.686l-2.46 2.46c-2.04 1.619-4.284-.9-2.784-2.7"/></g></svg>