<svg xmlns="http://www.w3.org/2000/svg" width="24" height="24" viewBox="0 0 24 24"><g fill="none" stroke="currentColor" stroke-linecap="round" stroke-linejoin="round" stroke-width="1.5" color="currentColor"><path d="M21 16.929V10c0-3.771 0-5.657-1.172-6.828S16.771 2 13 2h-1C8.229 2 6.343 2 5.172 3.172S4 6.229 4 10v9.5"/><path d="M21 17H6.5a2.5 2.5 0 0 0 0 5H21"/><path d="M21 22a2.5 2.5 0 0 1 0-5M14.388 6.85a1.97 1.97 0 0 1 1.112-.341c1.105 0 2 .903 2 2.017c0 1.097-.904 2.014-2 2.014v.96c0 .943 0 1.414-.293 1.707s-.764.293-1.707.293h-2c-.943 0-1.414 0-1.707-.293S9.5 12.443 9.5 11.5v-.835c-1.168 0-2-.87-2-2.139c0-1.114.895-2.017 2-2.017c.412 0 .794.125 1.112.34A2 2 0 0 1 12.5 5.5c.872 0 1.614.563 1.888 1.35m0 0q.11.314.112.668"/></g></svg>