<svg width="24" height="24" viewBox="0 0 24 24" fill="none" xmlns="http://www.w3.org/2000/svg">
<g clip-path="url(#clip0_1542_4536)">
<path d="M24 16.65C24 14.4 21.75 12.45 19.2 11.7C17.25 13.95 13.35 15.3 9.60001 15.3H8.85001C8.70001 15.75 8.70001 16.05 8.70001 16.5C8.70001 19.5 12 21.9 16.2 21.9H17.1C17.7 22.65 19.65 24 22.2 24C22.2 24 21 23.4 21 21.3C21 20.4 24 18.6 24 16.65Z" fill="black"/>
<path d="M19.5 6.9C19.5 3.15 15.3 0 9.9 0C4.5 0 0 3.15 0 6.9C0 9.45 3 11.7 4.5 12.9C4.5 15.6 2.4 16.5 2.4 16.5C5.85 16.5 7.8 14.85 8.7 13.8H9.9C15.15 13.95 19.5 10.8 19.5 6.9Z" fill="black"/>
</g>
<defs>
<clipPath id="clip0_1542_4536">
<rect width="24" height="24" fill="white"/>
</clipPath>
</defs>
</svg>
